<svg width="24" height="24" viewBox="0 0 24 24" fill="none" xmlns="http://www.w3.org/2000/svg">
<path fill-rule="evenodd" clip-rule="evenodd" d="M19 15.95V14H16.253C16.018 14 15.901 14 15.802 14.01C15.3423 14.0558 14.9126 14.2593 14.5859 14.5859C14.2593 14.9126 14.0558 15.3423 14.01 15.802C14 15.901 14 16.018 14 16.252C14 16.532 14 16.672 14.012 16.783C14.0701 17.3015 14.3284 17.7767 14.7319 18.1074C15.1355 18.4381 15.6522 18.598 16.172 18.553C16.282 18.543 16.42 18.516 16.694 18.461L16.99 18.401C17.37 18.326 17.561 18.288 17.722 18.226C18.044 18.1014 18.3283 17.8956 18.5472 17.6285C18.7661 17.3614 18.9121 17.0422 18.971 16.702C19 16.532 19 16.338 19 15.95ZM9 17.95V16H6.252C6.018 16 5.901 16 5.802 16.01C5.3423 16.0558 4.91261 16.2593 4.58595 16.5859C4.25928 16.9126 4.05577 17.3423 4.01 17.802C4 17.901 4 18.018 4 18.252C4 18.532 4 18.672 4.012 18.783C4.07005 19.3015 4.3284 19.7767 4.73193 20.1074C5.13546 20.4381 5.65223 20.598 6.172 20.553C6.282 20.543 6.42 20.516 6.694 20.461L6.99 20.401C7.37 20.326 7.561 20.288 7.721 20.226C8.04322 20.1015 8.32772 19.8958 8.54678 19.6287C8.76584 19.3616 8.91199 19.0423 8.971 18.702C9 18.532 9 18.337 9 17.95Z" fill="#3767ED"/>
<path d="M9 16V11M9 16V17.95M9 16H6.252C6.018 16 5.901 16 5.802 16.01C5.3423 16.0558 4.91261 16.2593 4.58595 16.5859C4.25928 16.9126 4.05577 17.3423 4.01 17.802M9 11L19 8.99998M9 11V9.27998M9 17.95V9.27998M9 17.95C9 18.339 9 18.532 8.97 18.702M9 17.95C9 18.337 9 18.532 8.97 18.702M19 14V8.99998M19 14V15.95C19 16.339 19 16.532 18.97 16.702M19 14H16.253C16.019 14 15.901 14 15.802 14.01C15.3423 14.0558 14.9126 14.2593 14.5859 14.5859M19 8.99998V8.87998M9 9.27998C9 7.70998 9 6.92498 9.453 6.37198C9.907 5.81898 10.676 5.66498 12.216 5.35698L14.216 4.95698C16.429 4.51398 17.536 4.29298 18.268 4.89298C19 5.49298 19 6.62198 19 8.87898M19 15.951C19 16.338 19 16.532 18.97 16.702M18.97 16.702C18.9112 17.0421 18.7653 17.3612 18.5466 17.6283C18.3279 17.8953 18.0438 18.1012 17.722 18.226C17.561 18.288 17.371 18.326 16.99 18.402L16.694 18.462C16.42 18.516 16.283 18.544 16.171 18.553C15.6514 18.5977 15.1349 18.4377 14.7316 18.107C14.3283 17.7764 14.0701 17.3013 14.012 16.783C14 16.673 14 16.533 14 16.253M14 16.253C14 16.018 14 15.901 14.01 15.802C14.0558 15.3423 14.2593 14.9126 14.5859 14.5859M14 16.253C14 16.018 14 15.901 14.01 15.803C14.0556 15.3431 14.2593 14.9128 14.5859 14.5859M8.97 18.702C8.91108 19.0422 8.76508 19.3614 8.5462 19.6285C8.32733 19.8955 8.04304 20.1014 7.721 20.226M7.721 20.226C7.561 20.288 7.371 20.326 6.991 20.402M7.721 20.226C7.561 20.288 7.371 20.325 6.991 20.401L6.694 20.461C6.42 20.515 6.283 20.543 6.171 20.552C5.6514 20.5967 5.13488 20.4367 4.73157 20.106M4.73157 20.106C4.32826 19.7754 4.07006 19.3003 4.012 18.782C4 18.673 4 18.533 4 18.253M4.73157 20.106C4.32826 19.7754 4.07006 19.3013 4.012 18.783C4 18.673 4 18.533 4 18.253M4 18.253C4 18.018 4 17.901 4.01 17.802M4 18.253C4 18.018 4 17.9 4.01 17.802" stroke="#3767ED" stroke-width="2"/>
</svg>
