<svg width="20" height="20" viewBox="0 0 20 20" fill="none" xmlns="http://www.w3.org/2000/svg">
<g clip-path="url(#clip0_1037_142)">
<path d="M18.1111 8.05556L16.5556 7.55556L16.2222 6.72222L17 5.27778C17.1667 4.94444 17.1111 4.5 16.8333 4.22222L15.5 2.88889C15.2222 2.61111 14.7778 2.55556 14.4444 2.72222L13 3.5L12.1667 3.16667L11.6667 1.61111C11.5556 1.27778 11.2222 1 10.8333 1H8.94444C8.55556 1 8.22222 1.27778 8.16667 1.66667L7.66667 3.22222C7.33333 3.27778 7.05556 3.38889 6.77778 3.55556L5.33333 2.77778C5 2.61111 4.55556 2.66667 4.27778 2.94444L2.94444 4.27778C2.66667 4.55556 2.61111 5 2.77778 5.33333L3.5 6.72222C3.38889 7 3.27778 7.33333 3.16667 7.61111L1.61111 8.11111C1.27778 8.22222 1 8.55556 1 8.94444V10.8333C1 11.2222 1.27778 11.5556 1.66667 11.6667L3.22222 12.1667L3.55556 13L2.77778 14.4444C2.61111 14.7778 2.66667 15.2222 2.94444 15.5L4.27778 16.8333C4.55556 17.1111 5 17.1667 5.33333 17L6.77778 16.2222L7.61111 16.5556L8.11111 18.1667C8.22222 18.5 8.55556 18.7778 8.94444 18.7778H10.8333C11.2222 18.7778 11.5556 18.5 11.6667 18.1667L12.1667 16.5556L13 16.2222L14.4444 17C14.7778 17.1667 15.2222 17.1111 15.5 16.8333L16.8333 15.5C17.1111 15.2222 17.1667 14.7778 17 14.4444L16.2222 13L16.5556 12.1667L18.1667 11.6667C18.5 11.5556 18.7778 11.2222 18.7778 10.8333V8.94444C18.7778 8.55556 18.5 8.16667 18.1111 8.05556ZM17.6667 10.6667L15.6667 11.2778L15.6111 11.5556L15.1111 12.7222L14.9444 13L15.9444 14.8333L14.8333 15.9444L13 14.9444L12.7222 15.1111C12.3333 15.3333 11.9444 15.5 11.5556 15.6111L11.2778 15.6667L10.6667 17.6667H9.11111L8.5 15.6667L8.22222 15.6111L7.05556 15.1111L6.77778 14.9444L4.94444 15.9444L3.83333 14.8333L4.83333 13L4.66667 12.7222C4.44444 12.3333 4.27778 11.9444 4.16667 11.5556L4.11111 11.2778L2.11111 10.6667V9.11111L4 8.55556L4.11111 8.27778C4.22222 7.83333 4.38889 7.44444 4.61111 7.05556L4.77778 6.77778L3.83333 4.94444L4.94444 3.83333L6.72222 4.83333L7 4.66667C7.38889 4.44444 7.77778 4.27778 8.22222 4.16667L8.5 4.05556L9.11111 2.11111H10.6667L11.2778 4.05556L11.5556 4.16667C11.9444 4.27778 12.3333 4.44444 12.7222 4.66667L13 4.83333L14.8333 3.83333L15.9444 4.94444L14.9444 6.77778L15.1111 7.05556C15.3333 7.44444 15.5 7.83333 15.6111 8.22222L15.6667 8.5L17.6667 9.11111V10.6667Z" fill="black"/>
<path d="M9.94382 6.04321C7.80123 6.04321 6.09814 7.7463 6.09814 9.88889C6.09814 12.0315 7.80123 13.7346 9.94382 13.7346C12.0864 13.7346 13.7895 12.0315 13.7895 9.88889C13.7895 7.7463 12.0864 6.04321 9.94382 6.04321ZM9.94382 12.6358C8.40555 12.6358 7.19691 11.4272 7.19691 9.88889C7.19691 8.35062 8.40555 7.14198 9.94382 7.14198C11.4821 7.14198 12.6907 8.35062 12.6907 9.88889C12.6907 11.4272 11.4821 12.6358 9.94382 12.6358Z" fill="black"/>
</g>
<defs>
<clipPath id="clip0_1037_142">
<rect width="19.7778" height="19.7778" fill="white"/>
</clipPath>
</defs>
</svg>
