<svg width="24" height="24" viewBox="0 0 24 24" fill="none" xmlns="http://www.w3.org/2000/svg">
<path fill-rule="evenodd" clip-rule="evenodd" d="M16.9698 6.97001C17.1105 6.82956 17.3011 6.75067 17.4998 6.75067C17.6986 6.75067 17.8892 6.82956 18.0298 6.97001L18.0318 6.97201L18.0348 6.97401L18.0418 6.98101L18.0618 7.00101L18.1238 7.07001C18.1738 7.12701 18.2438 7.20801 18.3248 7.31101C19.2488 8.51198 19.7498 9.98474 19.7498 11.5C19.7498 13.0153 19.2488 14.488 18.3248 15.689C18.2411 15.7959 18.153 15.8993 18.0608 15.999L18.0408 16.019L18.0348 16.026L18.0318 16.028L18.0308 16.029L17.5208 15.521L18.0308 16.031C17.8901 16.1717 17.6993 16.2508 17.5003 16.2508C17.3014 16.2508 17.1105 16.1717 16.9698 16.031C16.8291 15.8903 16.7501 15.6995 16.7501 15.5005C16.7501 15.3015 16.8291 15.1107 16.9698 14.97L16.9688 14.971L16.9668 14.972L16.9718 14.967L17.0048 14.931C17.0368 14.8963 17.0832 14.8407 17.1438 14.764C17.7765 13.9381 18.1556 12.9463 18.2351 11.909C18.3147 10.8717 18.0912 9.83367 17.5918 8.92101C17.4615 8.68082 17.3116 8.45172 17.1438 8.23601C17.0895 8.16583 17.0322 8.0981 16.9718 8.03301L16.9668 8.02801C16.8274 7.88707 16.7494 7.69665 16.75 7.49839C16.7506 7.30013 16.8296 7.11016 16.9698 6.97001Z" fill="#3767ED"/>
<path fill-rule="evenodd" clip-rule="evenodd" d="M19.97 3.97001C20.1106 3.82956 20.3012 3.75067 20.5 3.75067C20.6988 3.75067 20.8894 3.82956 21.03 3.97001L21.033 3.97201L21.036 3.97501L21.045 3.98501C21.0884 4.02777 21.1297 4.07248 21.169 4.11901C21.248 4.20801 21.357 4.33701 21.485 4.50401C21.742 4.83701 22.079 5.32701 22.414 5.96401C23.084 7.23801 23.75 9.10701 23.75 11.5C23.75 13.893 23.084 15.762 22.414 17.037C22.1471 17.5496 21.8363 18.0381 21.485 18.497C21.3468 18.6767 21.2 18.8496 21.045 19.015L21.035 19.025L21.033 19.028L21.031 19.029L20.5 18.5L21.03 19.03C20.8886 19.1667 20.6992 19.2424 20.5025 19.2408C20.3059 19.2392 20.1178 19.1604 19.9786 19.0214C19.8395 18.8824 19.7605 18.6943 19.7587 18.4977C19.7569 18.301 19.8324 18.1115 19.969 17.97L19.983 17.956L20.046 17.886C20.1053 17.8207 20.1887 17.7193 20.296 17.582C20.508 17.306 20.796 16.889 21.086 16.338C21.666 15.238 22.25 13.607 22.25 11.5C22.25 9.39301 21.666 7.76201 21.086 6.66201C20.8583 6.22575 20.594 5.80959 20.296 5.41801C20.1968 5.28916 20.0924 5.16439 19.983 5.04401L19.969 5.03001C19.8286 4.88939 19.7497 4.69876 19.7497 4.50001C19.7497 4.30126 19.8295 4.11064 19.97 3.97001ZM12.037 3.39601C13.2 2.62901 14.75 3.46401 14.75 4.85701V19.143C14.75 20.537 13.2 21.371 12.037 20.604L6.037 16.649C5.99641 16.6219 5.94879 16.6073 5.9 16.607H3C2.27065 16.607 1.57118 16.3173 1.05546 15.8016C0.539731 15.2858 0.25 14.5864 0.25 13.857V10.143C0.25 9.78188 0.321131 9.42428 0.459331 9.09063C0.597532 8.75699 0.800095 8.45383 1.05546 8.19847C1.31082 7.94311 1.61398 7.74055 1.94762 7.60234C2.28127 7.46414 2.63886 7.39301 3 7.39301H5.9C5.94903 7.39317 5.99701 7.37892 6.038 7.35201L12.037 3.39601Z" fill="#3767ED"/>
</svg>
